<svg xmlns="http://www.w3.org/2000/svg" data-name="Layer 1" viewBox="0 0 512 512" x="0px" y="0px" fill="#ffffff">
  <title>logout</title>
  <path d="M255.81, 395.4c0-54.54, 30-102.31, 74.14-126.62, 6.23-11.48, 13.22-22.72, 18.25-34.71, 20.38-48.55, 31.22-99, 24.27-152.09-5.74-43.81-31-70.72-73.63-79C279-.93, 259-0.71, 239.06, 2.08, 196.61, 8, 169.92, 34.19, 162.06, 77c-4.58, 24.9-3.65, 49.8.16, 74.64, 7, 45.36, 20.9, 88.06, 47.27, 125.91a10.91, 10.91, 0, 0, 1, 2.19, 4.63c1.33, 12.31-7, 28.56-18.1, 33.55-12.11, 5.42-24.57, 10.1-37.1, 14.43-33.13, 11.46-66.37, 22.44-97.12, 40-20.19, 11.55-34.4, 28-43.92, 49.19C6.17, 440, 1.83, 462.2.27, 484.62-0.28, 492.47.18, 501, .18, 509H310.09C277.07, 482, 255.81, 441.29, 255.81, 395.4Z"/>
  <path d="M397, 277.89c-63.43, 0-115, 52.51-115, 117.05S333.54, 512, 397, 512s115-52.51, 115-117.05S460.4, 277.89, 397, 277.89Zm46, 116.43c-8.78.32-17.58, 0.22-28.75, 0.32, 0.16, 17.33.45, 32.91, 0.4, 48.49, 0, 13-6.59, 20.53-17.72, 19.65-13.82-1.09-17.21-9.07-17.18-19, 0.06-15.62-.23-31.24-0.39-48.77-9.46.09-18.08, 0.4-26.68, 0.2-12.64-.3-15.79-4.21-9-12.24, 14.69-17.48, 30.05-34.59, 45.25-51.78, 4.79-5.41, 10.11-5.58, 15-.15, 15.75, 17.28, 31.65, 34.49, 47, 52C457.24, 390.29, 452.6, 394, 443, 394.32Z"/>
</svg>
