<svg xmlns="http://www.w3.org/2000/svg" xmlns:xlink="http://www.w3.org/1999/xlink" version="1.1" x="0px" y="0px" viewBox="0 0 100 100" style="enable-background:new 0 0 100 100;" xml:space="preserve" fill="#ffffff">
  <g>
    <path d="M44,58H20v25h8v-9.6c5.8,5.4,13.4,8.5,21.5,8.5c12.2,0,23.1-6.8,28.4-17.9l1.7-3.6L72.4,57l-1.7,3.6   c-4,8.2-12.1,13.3-21.2,13.3c-6.7,0-13.2-3-17.6-7.9H44V58z"/>
    <path d="M28.6,39.5c4.1-7.9,12.1-12.8,20.9-12.8c6.4,0,12.5,2.7,17,7.2H54v8h24V17h-8v9.4c-5.7-4.8-12.9-7.6-20.5-7.6   c-11.8,0-22.6,6.5-28,17.1l-1.8,3.6l7.1,3.7L28.6,39.5z"/>
  </g>
</svg>
